<?xml version="1.0" standalone="no"?>
<!DOCTYPE svg PUBLIC "-//W3C//DTD SVG 20010904//EN"
 "http://www.w3.org/TR/2001/REC-SVG-20010904/DTD/svg10.dtd">
<svg version="1.0" xmlns="http://www.w3.org/2000/svg"
 width="1263.000000pt" height="1280.000000pt" viewBox="0 0 1263.000000 1280.000000"
 preserveAspectRatio="xMidYMid meet">
<metadata>
Created by potrace 1.15, written by Peter Selinger 2001-2017
</metadata>
<g transform="translate(0.000000,1280.000000) scale(0.100000,-0.100000)"
fill="#000000" stroke="none">
<path d="M6895 12793 c-105 -13 -352 -91 -391 -124 -8 -6 -51 -7 -111 -3 -496
34 -995 -312 -1286 -892 -161 -321 -256 -681 -291 -1099 l-11 -139 -35 -3
c-54 -3 -896 -23 -1465 -34 -280 -5 -1130 -12 -1887 -16 l-1378 -6 0 -22 c0
-12 9 -125 20 -251 29 -337 125 -1530 159 -1979 138 -1783 168 -2351 182
-3365 20 -1465 1 -2205 -72 -2810 -60 -497 -165 -932 -292 -1212 l-35 -77 46
-29 c255 -161 652 -395 930 -546 l339 -185 5652 706 5653 707 -5 25 c-2 15
-46 159 -97 321 -191 611 -176 548 -184 770 -4 107 -11 303 -16 435 -13 317
-36 1062 -52 1615 -16 614 -17 2084 0 2405 32 609 98 1525 172 2362 47 536
175 1878 185 1936 l4 27 -639 0 -640 0 5 43 c2 23 7 95 10 160 5 110 4 118
-12 113 -296 -87 -1194 -315 -1798 -457 -344 -81 -1265 -279 -1298 -279 -4 0
-7 46 -7 103 0 210 -31 467 -80 672 -151 631 -508 1036 -989 1120 -76 14 -211
18 -286 8z m375 -212 c249 -84 452 -279 594 -571 128 -261 206 -646 206 -1011
l0 -146 -32 -6 c-18 -3 -139 -24 -268 -46 -129 -23 -238 -41 -242 -41 -5 0 -8
71 -8 158 0 516 -135 997 -365 1303 -88 117 -223 243 -329 306 -97 57 -97 54
21 78 45 9 113 13 198 11 115 -3 141 -7 225 -35z m-1117 -168 c-104 -103 -171
-185 -256 -313 -242 -366 -385 -829 -429 -1387 l-12 -151 -155 -6 c-86 -3
-194 -8 -240 -11 l-83 -5 7 92 c45 618 256 1161 581 1497 167 173 341 283 529
335 146 40 149 38 58 -51z m506 6 c359 -170 593 -582 671 -1179 16 -122 26
-510 13 -510 -6 0 -69 -9 -139 -19 -176 -27 -523 -67 -734 -85 -147 -13 -775
-56 -819 -56 -30 0 12 392 68 640 127 551 384 978 740 1227 57 40 82 38 200
-18z"/>
</g>
</svg>
