<?xml version="1.0" standalone="no"?>
<!DOCTYPE svg PUBLIC "-//W3C//DTD SVG 20010904//EN"
 "http://www.w3.org/TR/2001/REC-SVG-20010904/DTD/svg10.dtd">
<svg version="1.0" xmlns="http://www.w3.org/2000/svg"
 width="908.000000pt" height="1280.000000pt" viewBox="0 0 908.000000 1280.000000"
 preserveAspectRatio="xMidYMid meet">
<metadata>
Created by potrace 1.15, written by Peter Selinger 2001-2017
</metadata>
<g transform="translate(0.000000,1280.000000) scale(0.100000,-0.100000)"
fill="#000000" stroke="none">
<path d="M2940 12793 c-144 -16 -350 -99 -470 -191 -327 -248 -531 -768 -506
-1287 11 -219 59 -582 106 -805 47 -224 47 -230 5 -345 -322 -868 -429 -1465
-424 -2355 2 -360 1 -378 -20 -440 -44 -134 -120 -200 -318 -276 -151 -58
-226 -101 -285 -161 -92 -94 -131 -218 -132 -413 -1 -124 -1 -125 37 -204 20
-43 51 -98 67 -123 l31 -45 -80 -211 c-136 -365 -238 -697 -341 -1107 -206
-821 -370 -1695 -510 -2715 -16 -121 -46 -305 -66 -409 -41 -214 -42 -282 -4
-356 35 -70 63 -101 168 -191 53 -46 189 -167 302 -268 330 -297 360 -323 465
-407 215 -172 383 -281 580 -375 192 -92 238 -104 385 -103 113 1 135 4 225
33 55 18 294 122 530 231 495 228 546 251 945 430 808 363 1348 609 2165 985
248 114 736 339 1085 500 349 161 772 358 940 438 168 80 368 168 445 196 298
110 388 150 509 228 192 124 291 276 303 463 7 110 -11 200 -87 435 -71 220
-94 300 -209 720 -83 309 -110 408 -227 863 -198 767 -387 1283 -670 1831
-229 442 -587 990 -702 1075 -101 75 -171 160 -352 431 -150 223 -180 252
-317 305 -60 23 -126 54 -147 68 -56 38 -103 117 -170 283 -32 79 -139 304
-237 499 -249 498 -269 564 -289 1000 -31 640 -132 979 -357 1191 -179 168
-400 212 -708 139 -104 -25 -164 -34 -235 -34 -114 -1 -161 17 -283 107 -255
189 -577 328 -852 367 -67 9 -222 11 -295 3z m336 -448 c93 -6 242 -45 329
-84 70 -32 185 -101 185 -112 0 -3 -46 -37 -102 -75 -214 -144 -587 -438 -833
-656 -6 -6 -1 -16 15 -28 l25 -20 -36 0 c-45 0 -59 -11 -229 -180 -83 -82
-142 -149 -150 -170 -13 -34 -131 -222 -136 -217 -4 4 -62 240 -79 321 -78
380 -53 708 69 891 95 143 273 251 505 307 87 21 253 37 326 32 22 -2 72 -6
111 -9z m1675 -338 c109 -53 189 -166 244 -342 30 -93 75 -313 75 -362 0 -17
-98 99 -147 176 -39 59 -184 220 -214 237 -11 5 -17 13 -14 16 3 3 -44 67
-104 143 -61 75 -111 141 -111 145 0 12 53 18 141 16 59 -2 89 -9 130 -29z
m-703 -202 c98 -45 145 -83 363 -289 138 -131 393 -514 584 -879 93 -177 111
-230 126 -363 21 -176 -6 -387 -100 -799 -27 -115 -54 -250 -61 -300 -47 -344
-64 -437 -88 -464 -9 -10 -93 -51 -187 -91 -93 -40 -399 -171 -680 -292 -1110
-479 -1224 -528 -1230 -528 -3 0 -5 8 -5 17 0 15 -19 107 -141 688 -130 618
-234 1048 -314 1300 -79 249 -83 303 -34 442 74 210 209 435 354 590 75 80
227 219 319 290 25 20 27 25 15 40 -12 15 -12 16 4 10 26 -10 79 15 129 61 52
48 342 263 528 392 74 51 156 110 181 132 89 73 149 84 237 43z m1522 -2237
c60 -134 107 -225 113 -221 6 3 7 1 3 -5 -12 -20 14 -93 64 -184 27 -48 45
-90 42 -92 -4 -2 -104 -47 -222 -101 -118 -53 -233 -106 -254 -116 -22 -10
-41 -18 -42 -16 -2 2 23 111 56 243 74 304 90 385 96 509 6 116 23 230 34 218
3 -4 53 -110 110 -235z m-3528 -135 c20 -117 90 -490 116 -623 l20 -95 3 115
c1 63 4 95 6 70 27 -386 27 -391 123 -881 33 -168 61 -323 63 -345 l2 -39
-190 -62 c-104 -34 -237 -76 -295 -94 -58 -17 -111 -34 -119 -37 -12 -4 -13
49 -8 354 10 623 74 1098 212 1582 19 68 35 130 35 138 0 8 3 14 8 14 4 0 15
-44 24 -97z"/>
</g>
</svg>
