<?xml version="1.0" standalone="no"?>
<!DOCTYPE svg PUBLIC "-//W3C//DTD SVG 20010904//EN"
 "http://www.w3.org/TR/2001/REC-SVG-20010904/DTD/svg10.dtd">
<svg version="1.0" xmlns="http://www.w3.org/2000/svg"
 width="1175.000000pt" height="1280.000000pt" viewBox="0 0 1175.000000 1280.000000"
 preserveAspectRatio="xMidYMid meet">
<metadata>
Created by potrace 1.15, written by Peter Selinger 2001-2017
</metadata>
<g transform="translate(0.000000,1280.000000) scale(0.100000,-0.100000)"
fill="#000000" stroke="none">
<path d="M4645 12789 c-226 -21 -480 -77 -665 -146 -923 -345 -1447 -1249
-1541 -2655 -11 -175 -7 -788 7 -924 l6 -61 -31 -13 c-44 -18 -97 -83 -110
-136 -9 -36 -8 -75 9 -203 11 -88 27 -175 35 -193 19 -48 85 -105 137 -119 24
-6 48 -13 54 -14 7 -2 15 -28 18 -57 4 -29 9 -65 12 -79 5 -26 3 -27 -93 -49
-415 -96 -755 -225 -1078 -410 -55 -31 -152 -85 -215 -120 -326 -179 -605
-396 -779 -606 -181 -218 -267 -433 -286 -714 -3 -52 -15 -185 -26 -295 -146
-1492 -127 -3008 52 -4250 56 -387 127 -726 219 -1046 128 -444 243 -606 475
-671 76 -21 97 -22 440 -22 503 1 1165 36 2430 130 706 52 2593 206 3050 249
1211 114 2904 327 4250 535 318 49 319 50 372 86 172 118 285 393 340 826 13
103 17 211 17 473 -1 447 6 373 -194 2100 -205 1775 -271 2160 -442 2589 -269
678 -713 1127 -1362 1381 -331 130 -789 214 -1163 215 l-132 0 -5 33 c-3 17
-7 68 -11 112 l-5 81 34 12 c46 17 102 81 117 134 18 66 -22 366 -57 425 -31
53 -99 94 -165 101 l-48 4 -27 82 c-158 481 -425 1045 -701 1480 -299 470
-611 827 -988 1131 -176 142 -477 322 -685 410 -187 80 -439 149 -652 180
-127 19 -478 27 -613 14z m710 -559 c333 -49 654 -157 932 -313 243 -137 484
-318 545 -410 37 -56 178 -303 178 -312 0 -3 -33 30 -72 72 -495 526 -1025
812 -1698 918 -141 23 -559 31 -717 15 -149 -15 -326 -52 -461 -96 -123 -40
-143 -43 -52 -7 198 78 429 126 755 157 103 10 457 -4 590 -24z m-186 -316
c454 -66 877 -270 1197 -577 186 -178 305 -352 441 -642 153 -327 331 -836
502 -1430 69 -240 161 -584 161 -599 0 -8 -111 -12 -348 -14 -357 -2 -800 -21
-1142 -47 -596 -47 -1753 -176 -2423 -272 -141 -20 -259 -34 -261 -32 -2 2 -6
32 -10 66 -6 56 -5 62 14 68 65 21 123 110 122 190 -1 81 -31 296 -48 342 -21
59 -83 109 -150 124 -30 7 -54 15 -54 18 0 3 -16 96 -35 206 -67 380 -115 701
-115 767 0 197 34 433 85 583 195 583 879 1123 1580 1249 109 19 352 20 484 0z
m-1929 -347 c0 -2 -12 -14 -27 -28 l-28 -24 24 28 c23 25 31 32 31 24z m-93
-114 c-66 -87 -106 -148 -169 -258 -32 -55 -58 -95 -58 -89 0 32 245 404 266
404 3 0 -15 -26 -39 -57z m5266 -2153 c9 -14 23 -84 32 -153 16 -124 16 -129
-3 -165 -17 -34 -23 -38 -73 -44 -30 -3 -98 -6 -151 -7 l-98 -1 -6 28 c-4 15
-21 77 -39 139 l-31 112 50 10 c28 6 94 17 146 26 149 24 140 20 129 57 -5 18
-9 36 -9 41 0 14 38 -16 53 -43z m-5170 -382 c11 -15 24 -61 33 -119 17 -117
17 -187 0 -218 -13 -23 -14 -18 -26 62 l-12 85 -33 -5 c-30 -5 -33 -3 -37 26
-6 38 -3 41 34 41 23 0 28 4 24 18 -4 16 -26 131 -26 140 0 11 26 -7 43 -30z
m-727 -258 c28 0 33 -25 5 -33 -17 -4 -18 -8 -5 -77 14 -75 14 -87 -5 -75 -25
15 -41 70 -57 186 -13 102 -14 129 -3 154 12 29 13 26 27 -62 13 -87 16 -93
38 -93z"/>
</g>
</svg>
