<?xml version="1.0" standalone="no"?>
<!DOCTYPE svg PUBLIC "-//W3C//DTD SVG 20010904//EN"
 "http://www.w3.org/TR/2001/REC-SVG-20010904/DTD/svg10.dtd">
<svg version="1.0" xmlns="http://www.w3.org/2000/svg"
 width="882.000000pt" height="1280.000000pt" viewBox="0 0 882.000000 1280.000000"
 preserveAspectRatio="xMidYMid meet">
<metadata>
Created by potrace 1.15, written by Peter Selinger 2001-2017
</metadata>
<g transform="translate(0.000000,1280.000000) scale(0.100000,-0.100000)"
fill="#000000" stroke="none">
<path d="M4295 12783 c-207 -44 -367 -144 -517 -323 -253 -301 -439 -723 -573
-1300 -25 -107 -70 -289 -100 -405 -170 -652 -317 -1609 -390 -2535 -8 -107
-20 -230 -26 -272 l-11 -78 -292 0 c-551 0 -714 -19 -1031 -120 -129 -40 -179
-41 -292 -2 -149 52 -290 66 -665 67 -179 0 -329 -3 -333 -6 -8 -8 -39 -491
-56 -854 -7 -155 -9 -371 -5 -535 8 -354 21 -534 101 -1360 69 -705 97 -1078
140 -1835 8 -143 21 -350 30 -460 8 -110 19 -270 25 -355 27 -378 74 -750 120
-935 42 -173 94 -452 140 -751 65 -426 90 -522 151 -589 49 -53 105 -80 227
-111 92 -23 99 -24 345 -15 139 4 1643 6 3342 3 2189 -3 3117 -1 3184 6 52 6
130 23 175 38 69 23 89 34 131 78 28 29 71 90 97 137 44 78 48 92 63 209 14
112 51 338 144 875 16 94 37 256 45 360 18 210 55 645 87 1002 13 158 23 383
29 710 6 315 14 516 24 588 8 61 29 283 46 495 17 212 35 412 40 445 14 90 28
368 45 880 35 1069 61 1743 75 1924 6 68 8 126 7 128 -5 4 -712 -25 -867 -35
-101 -8 -125 -13 -198 -45 -46 -20 -93 -37 -106 -37 -13 0 -47 16 -76 36 -106
73 -163 80 -730 94 -627 15 -640 16 -673 85 -23 48 -44 172 -62 370 -9 94 -30
280 -46 415 -16 135 -29 293 -29 350 0 120 -19 221 -156 840 -100 453 -122
543 -174 710 -21 69 -70 233 -110 365 -151 512 -294 929 -394 1153 -156 351
-327 509 -635 586 -117 29 -165 31 -266 9z m180 -228 c90 -23 218 -89 256
-132 37 -43 117 -205 153 -314 56 -166 85 -371 187 -1284 88 -800 111 -978
214 -1705 132 -931 157 -1142 135 -1155 -22 -13 -343 -24 -1080 -35 -388 -5
-751 -13 -806 -16 l-102 -7 -6 30 c-4 16 0 166 9 334 8 167 26 556 40 864 41
906 62 1233 100 1535 21 163 42 368 60 565 23 252 40 336 120 585 102 319 140
386 314 561 111 111 174 155 250 175 62 17 86 17 156 -1z"/>
</g>
</svg>
