<?xml version="1.0" standalone="no"?>
<!DOCTYPE svg PUBLIC "-//W3C//DTD SVG 20010904//EN"
 "http://www.w3.org/TR/2001/REC-SVG-20010904/DTD/svg10.dtd">
<svg version="1.0" xmlns="http://www.w3.org/2000/svg"
 width="1088.000000pt" height="1280.000000pt" viewBox="0 0 1088.000000 1280.000000"
 preserveAspectRatio="xMidYMid meet">
<metadata>
Created by potrace 1.15, written by Peter Selinger 2001-2017
</metadata>
<g transform="translate(0.000000,1280.000000) scale(0.100000,-0.100000)"
fill="#000000" stroke="none">
<path d="M5078 12789 c-345 -33 -688 -170 -980 -390 -117 -88 -318 -294 -419
-429 -97 -129 -127 -176 -221 -340 -56 -98 -67 -124 -71 -176 -6 -73 -36 -140
-120 -267 -81 -122 -110 -194 -157 -389 -72 -299 -148 -821 -205 -1408 -14
-146 -29 -289 -33 -319 l-7 -54 -55 -14 c-80 -20 -109 -33 -122 -57 -6 -11
-13 -63 -15 -116 -3 -52 -11 -112 -19 -133 -22 -58 -43 -207 -50 -354 -4 -73
-8 -133 -10 -133 -1 0 -87 -7 -191 -15 -455 -37 -829 -100 -982 -165 -32 -14
-68 -41 -92 -69 -120 -136 -114 -256 16 -324 30 -16 29 -16 -55 -17 -123 -1
-166 -12 -206 -51 -39 -38 -50 -68 -35 -96 7 -15 -14 -121 -89 -449 -166 -726
-267 -1149 -335 -1399 -88 -321 -114 -454 -125 -637 -13 -225 -45 -375 -363
-1708 -110 -458 -114 -480 -128 -716 -14 -234 -8 -429 20 -684 11 -102 32
-297 46 -435 67 -649 116 -1053 136 -1127 29 -110 309 -302 459 -315 62 -6
215 16 370 53 l105 26 815 9 c1243 13 1979 27 2725 50 589 18 914 21 2435 23
1738 3 1759 3 2215 -21 520 -28 972 -34 1050 -14 61 15 96 47 140 126 106 191
184 451 285 950 62 310 64 335 64 820 0 444 -10 637 -50 945 -42 333 -128 658
-594 2241 -147 498 -140 467 -140 631 0 161 -20 354 -49 473 -11 44 -42 144
-70 221 -62 177 -156 484 -276 904 -101 350 -105 360 -171 360 l-34 0 31 43
c40 57 39 89 -6 170 -43 78 -79 109 -159 137 -144 49 -544 76 -973 65 -145 -4
-263 -3 -263 1 0 5 7 32 16 59 8 28 18 97 21 155 5 94 3 118 -21 210 -15 58
-36 123 -46 146 -11 22 -33 86 -48 141 -16 56 -36 113 -46 128 -22 34 -70 62
-118 70 -28 5 -39 12 -43 28 -17 75 -168 728 -185 802 -64 275 -233 971 -250
1034 -21 76 -52 145 -70 156 -31 19 -54 95 -66 217 -16 158 -63 336 -111 415
-149 248 -390 497 -643 665 -409 272 -923 396 -1432 347z m467 -423 c109 -24
191 -53 315 -114 l115 -57 251 -248 251 -247 7 -213 c4 -116 12 -243 17 -282
13 -88 72 -346 143 -625 67 -262 79 -345 187 -1299 24 -214 26 -204 -45 -215
-74 -12 -136 -37 -153 -63 -34 -51 -26 -358 13 -535 9 -37 27 -84 40 -104 21
-30 54 -158 54 -206 0 -14 -382 -9 -895 12 -492 19 -1315 40 -1631 40 l-161 0
5 77 c3 50 13 96 28 130 53 120 59 307 15 463 -34 116 -49 143 -91 165 -27 14
-29 19 -25 58 3 23 12 188 20 367 19 392 29 530 55 760 11 96 32 276 47 400
24 206 26 267 30 728 l5 502 91 84 c168 154 281 246 348 281 240 126 714 195
964 141z m1331 -3511 c8 -34 -1 -55 -25 -55 -22 0 -35 30 -26 60 9 29 43 26
51 -5z m982 -262 c-28 -106 -118 -225 -209 -280 -171 -102 -449 -76 -660 63
-65 43 -66 45 -72 96 -4 29 -7 72 -7 96 l0 44 30 -31 c17 -17 47 -33 67 -37
53 -10 767 60 818 80 6 3 18 5 27 5 14 1 15 -4 6 -36z m-4518 -113 c190 -17
383 -34 430 -38 67 -5 85 -10 88 -24 6 -29 -113 -145 -183 -178 -61 -29 -67
-30 -210 -30 -168 0 -228 12 -340 67 -79 38 -167 109 -189 152 -8 14 -17 41
-21 59 l-7 34 44 -6 c23 -3 198 -20 388 -36z m4595 -179 c-31 -88 -42 -101
-87 -101 l-42 0 70 70 c38 38 70 70 71 70 1 0 -4 -17 -12 -39z"/>
</g>
</svg>
