<?xml version="1.0" standalone="no"?>
<!DOCTYPE svg PUBLIC "-//W3C//DTD SVG 20010904//EN"
 "http://www.w3.org/TR/2001/REC-SVG-20010904/DTD/svg10.dtd">
<svg version="1.0" xmlns="http://www.w3.org/2000/svg"
 width="1280.000000pt" height="1237.000000pt" viewBox="0 0 1280.000000 1237.000000"
 preserveAspectRatio="xMidYMid meet">
<metadata>
Created by potrace 1.15, written by Peter Selinger 2001-2017
</metadata>
<g transform="translate(0.000000,1237.000000) scale(0.100000,-0.100000)"
fill="#000000" stroke="none">
<path d="M6045 12363 c-572 -47 -1076 -290 -1475 -711 -179 -188 -318 -379
-472 -651 -79 -140 -88 -160 -88 -207 0 -85 -45 -187 -153 -348 -32 -48 -72
-120 -89 -160 -95 -230 -203 -826 -282 -1561 -31 -284 -64 -620 -74 -740 l-7
-90 -68 -16 c-144 -35 -154 -49 -164 -212 -3 -56 -14 -127 -23 -157 -27 -81
-50 -254 -57 -421 l-6 -146 -128 -7 c-167 -8 -470 -40 -689 -72 -309 -45 -533
-101 -609 -153 -87 -59 -161 -180 -161 -264 0 -76 39 -131 125 -175 l40 -21
-133 -1 c-149 0 -179 -8 -228 -61 -27 -29 -62 -125 -247 -679 -119 -355 -238
-705 -266 -777 -28 -73 -74 -192 -101 -264 -67 -176 -90 -266 -96 -379 -9
-158 -60 -325 -467 -1512 -111 -324 -121 -379 -121 -673 -1 -181 2 -207 52
-535 132 -857 172 -1088 198 -1128 35 -53 205 -148 367 -205 86 -30 100 -32
222 -31 84 1 191 11 303 28 96 14 215 28 265 31 51 3 727 10 1502 15 776 6
1619 15 1875 20 256 5 710 15 1010 21 687 15 4798 15 5110 0 782 -37 1303 -36
1377 3 71 37 161 160 248 341 78 161 218 603 244 770 31 192 23 697 -15 995
-49 388 -126 606 -669 1880 -62 146 -137 321 -166 390 l-53 125 -7 165 c-11
243 -32 326 -137 536 -79 157 -196 422 -333 754 -51 124 -97 226 -101 228 -4
2 -3 12 3 23 5 11 9 36 7 56 -4 44 -37 72 -96 80 l-41 5 30 38 c41 51 54 103
36 138 -91 175 -121 201 -269 242 -184 50 -616 74 -1117 63 -287 -6 -294 -6
-287 13 30 76 40 148 40 284 0 136 -2 151 -33 250 -18 58 -41 119 -51 135 -10
17 -21 46 -25 65 -13 65 -53 197 -69 229 -26 50 -87 84 -163 90 l-67 6 -38
175 c-81 369 -425 1845 -469 2009 -29 110 -46 150 -89 206 -51 67 -67 119 -75
250 -7 112 -36 254 -77 381 -64 194 -357 554 -633 777 -381 308 -838 490
-1350 537 -102 9 -326 11 -420 3z m527 -516 c115 -30 284 -100 385 -160 89
-52 210 -164 459 -423 l191 -200 7 -219 c12 -364 22 -428 166 -1010 49 -198
96 -412 104 -475 24 -173 81 -654 121 -1020 19 -179 37 -337 39 -351 5 -24 2
-26 -87 -47 -102 -24 -136 -44 -150 -88 -14 -42 -13 -333 2 -444 20 -162 38
-232 72 -279 23 -33 34 -64 45 -131 7 -48 16 -95 20 -104 6 -15 -20 -16 -273
-16 -153 0 -436 7 -628 15 -664 28 -962 36 -1605 45 -355 5 -646 9 -648 9 -2
1 -1 13 2 29 4 15 8 56 11 92 2 36 15 92 28 125 38 93 51 169 50 305 0 114 -3
135 -35 244 -28 93 -43 125 -69 152 -18 19 -41 37 -52 40 -17 5 -18 13 -13 72
4 37 13 211 21 387 23 490 32 602 91 1130 55 488 56 492 65 925 5 239 10 525
11 634 l3 200 135 119 c74 66 168 148 208 182 170 147 411 230 817 284 39 5
147 8 240 7 143 -3 185 -8 267 -29z m1502 -4158 c7 -41 -6 -65 -26 -53 -9 6
-10 49 -2 81 9 32 20 20 28 -28z m1190 -266 c-13 -55 -53 -143 -89 -197 -81
-123 -214 -206 -361 -226 -171 -23 -387 25 -544 120 -113 69 -113 69 -120 171
-3 49 -3 89 -2 89 2 0 15 -9 29 -20 21 -16 41 -20 112 -20 139 0 797 72 911
99 64 16 71 14 64 -16z m-5204 -168 c277 -26 507 -48 509 -51 11 -11 -36 -78
-95 -134 -40 -39 -87 -72 -128 -90 -65 -30 -67 -30 -247 -30 -198 0 -253 9
-365 60 -136 62 -255 166 -269 236 -3 19 -9 42 -12 51 -5 14 1 15 48 9 30 -3
281 -26 559 -51z m5281 -214 c-33 -89 -45 -101 -97 -101 l-45 0 78 78 c43 42
79 76 81 76 2 -1 -6 -25 -17 -53z"/>
</g>
</svg>
