<?xml version="1.0" standalone="no"?>
<!DOCTYPE svg PUBLIC "-//W3C//DTD SVG 20010904//EN"
 "http://www.w3.org/TR/2001/REC-SVG-20010904/DTD/svg10.dtd">
<svg version="1.0" xmlns="http://www.w3.org/2000/svg"
 width="1280.000000pt" height="1026.000000pt" viewBox="0 0 1280.000000 1026.000000"
 preserveAspectRatio="xMidYMid meet">
<metadata>
Created by potrace 1.15, written by Peter Selinger 2001-2017
</metadata>
<g transform="translate(0.000000,1026.000000) scale(0.100000,-0.100000)"
fill="#000000" stroke="none">
<path d="M5770 10241 c-169 -9 -268 -23 -400 -56 -489 -122 -878 -390 -1126
-777 -202 -314 -391 -887 -824 -2503 -130 -483 -153 -563 -185 -626 -31 -60
-54 -79 -100 -79 -52 0 -265 30 -815 114 -676 103 -794 113 -911 76 -35 -11
-85 -36 -111 -55 -42 -31 -49 -42 -73 -116 -41 -131 -97 -356 -194 -774 -50
-214 -126 -536 -170 -715 -44 -179 -139 -590 -211 -915 -200 -901 -317 -1391
-430 -1795 -93 -332 -132 -503 -174 -765 -81 -502 -49 -761 117 -941 134 -144
184 -180 314 -225 126 -43 218 -50 661 -48 379 2 425 0 502 -17 81 -18 118
-19 740 -13 360 4 1521 10 2580 13 2428 8 5609 26 5641 31 13 2 332 6 709 10
703 6 805 11 963 44 182 38 281 85 373 176 116 115 154 235 154 487 0 284 -56
541 -459 2098 -363 1408 -551 2169 -721 2929 -123 548 -168 661 -264 661 -106
0 -577 -69 -966 -140 -301 -55 -464 -80 -532 -80 -52 0 -62 4 -96 34 -96 87
-289 474 -714 1431 -354 799 -511 1095 -734 1385 -99 130 -172 203 -359 361
-289 244 -421 338 -679 484 -352 198 -529 260 -851 294 -130 14 -486 20 -655
12z m828 -390 c281 -60 602 -190 808 -326 157 -104 319 -301 538 -654 268
-430 426 -732 553 -1056 132 -333 165 -450 233 -825 54 -295 65 -402 65 -623
l0 -209 -31 -28 c-42 -37 -106 -46 -399 -60 -634 -29 -1845 -41 -2040 -20 -49
5 -607 14 -1240 20 -632 5 -1185 12 -1228 16 -108 9 -123 22 -120 111 1 37 20
154 43 258 22 105 63 310 90 457 58 308 104 495 188 763 193 611 432 1177 609
1444 159 239 437 447 795 595 153 63 370 124 518 145 41 6 86 13 100 15 14 3
115 3 225 1 150 -3 223 -9 293 -24z m6022 -9566 c0 -6 -97 -55 -107 -55 -4 1
17 14 47 30 61 32 60 32 60 25z m-12284 -93 c-5 -4 -86 36 -86 43 0 3 20 -5
45 -17 24 -12 43 -23 41 -26z m12117 21 c-7 -2 -19 -2 -25 0 -7 3 -2 5 12 5
14 0 19 -2 13 -5z m-70 -10 c-7 -2 -21 -2 -30 0 -10 3 -4 5 12 5 17 0 24 -2
18 -5z m-100 -10 c-13 -2 -33 -2 -45 0 -13 2 -3 4 22 4 25 0 35 -2 23 -4z
m-130 -10 c-13 -2 -35 -2 -50 0 -16 2 -5 4 22 4 28 0 40 -2 28 -4z m-155 -10
c-21 -2 -57 -2 -80 0 -24 2 -7 4 37 4 44 0 63 -2 43 -4z m-251 -10 c-20 -2
-52 -2 -70 0 -17 2 0 4 38 4 39 0 53 -2 32 -4z m-11300 -9 c-3 -3 -12 -4 -19
-1 -8 3 -5 6 6 6 11 1 17 -2 13 -5z m11086 -1 c-29 -2 -78 -2 -110 0 -32 2 -8
3 52 3 61 0 87 -1 58 -3z m-370 -10 c-29 -2 -77 -2 -105 0 -29 2 -6 3 52 3 58
0 81 -1 53 -3z m-10630 -10 c-7 -2 -19 -2 -25 0 -7 3 -2 5 12 5 14 0 19 -2 13
-5z m10275 0 c-49 -2 -127 -2 -175 0 -49 1 -9 3 87 3 96 0 136 -2 88 -3z
m-10205 -10 c-7 -2 -21 -2 -30 0 -10 3 -4 5 12 5 17 0 24 -2 18 -5z m9640 0
c-46 -2 -120 -2 -165 0 -46 1 -9 3 82 3 91 0 128 -2 83 -3z m-9515 -10 c-15
-2 -42 -2 -60 0 -18 2 -6 4 27 4 33 0 48 -2 33 -4z m8885 0 c-78 -2 -208 -2
-290 0 -81 1 -17 3 142 3 160 0 226 -2 148 -3z m-8706 -10 c-20 -2 -52 -2 -70
0 -17 2 0 4 38 4 39 0 53 -2 32 -4z m7651 0 c-109 -2 -287 -2 -395 0 -109 1
-20 2 197 2 217 0 306 -1 198 -2z m-7295 -10 c-34 -2 -93 -2 -130 0 -37 2 -9
3 62 3 72 0 102 -1 68 -3z m4254 1 c-3 -3 -12 -4 -19 -1 -8 3 -5 6 6 6 11 1
17 -2 13 -5z m126 -1 c-7 -2 -19 -2 -25 0 -7 3 -2 5 12 5 14 0 19 -2 13 -5z
m1320 0 c-226 -2 -600 -2 -830 0 -230 1 -44 2 412 2 457 0 645 -1 418 -2z
m-5335 -10 c-26 -2 -71 -2 -100 0 -29 2 -8 3 47 3 55 0 79 -1 53 -3z m2995 0
c-111 -2 -295 -2 -410 0 -114 1 -23 2 202 2 226 0 319 -1 208 -2z m-2665 -10
c-32 -2 -84 -2 -115 0 -32 2 -6 3 57 3 63 0 89 -1 58 -3z m1580 0 c-82 -2
-214 -2 -295 0 -82 1 -15 3 147 3 162 0 229 -2 148 -3z m-1335 -10 c-18 -2
-48 -2 -65 0 -18 2 -4 4 32 4 36 0 50 -2 33 -4z m655 0 c-32 -2 -84 -2 -115 0
-32 2 -6 3 57 3 63 0 89 -1 58 -3z m-540 -10 c-10 -2 -28 -2 -40 0 -13 2 -5 4
17 4 22 1 32 -1 23 -4z m255 0 c-24 -2 -62 -2 -85 0 -24 2 -5 4 42 4 47 0 66
-2 43 -4z"/>
</g>
</svg>
