<?xml version="1.0" standalone="no"?>
<!DOCTYPE svg PUBLIC "-//W3C//DTD SVG 20010904//EN"
 "http://www.w3.org/TR/2001/REC-SVG-20010904/DTD/svg10.dtd">
<svg version="1.0" xmlns="http://www.w3.org/2000/svg"
 width="1164.000000pt" height="1280.000000pt" viewBox="0 0 1164.000000 1280.000000"
 preserveAspectRatio="xMidYMid meet">
<metadata>
Created by potrace 1.15, written by Peter Selinger 2001-2017
</metadata>
<g transform="translate(0.000000,1280.000000) scale(0.100000,-0.100000)"
fill="#000000" stroke="none">
<path d="M6509 12729 c-44 -4 -121 -24 -180 -45 -57 -20 -111 -37 -119 -37 -8
0 -62 8 -119 18 -319 55 -679 -59 -1046 -332 -161 -120 -455 -410 -606 -600
-481 -603 -920 -1404 -1338 -2443 -27 -69 -58 -130 -68 -137 -15 -10 -568
-246 -1353 -578 -69 -29 -197 -76 -284 -103 -136 -42 -161 -53 -173 -76 -7
-14 -25 -29 -38 -32 -37 -9 -34 -44 4 -44 l29 0 7 -217 c16 -450 -3 -1409 -40
-2008 -118 -1924 -485 -3795 -1098 -5602 -50 -149 -90 -274 -87 -276 3 -3 824
-24 1825 -46 1001 -23 2007 -46 2235 -51 228 -5 618 -14 865 -20 248 -6 648
-15 890 -20 728 -17 3504 -80 3526 -80 17 0 19 4 13 35 -6 32 1 44 102 182
389 529 682 790 1100 977 276 124 556 197 932 245 78 10 145 21 148 24 4 3
-34 86 -84 184 -365 719 -559 1445 -648 2428 -21 233 -30 989 -15 1295 49
1002 198 2025 547 3769 35 178 67 327 70 332 3 5 -5 9 -18 9 -39 0 -52 14 -38
40 l12 23 -628 -7 c-805 -9 -1178 -23 -1789 -71 -99 -8 -183 -11 -186 -7 -3 4
-14 43 -24 87 -9 44 -37 157 -62 250 -249 955 -618 1752 -1059 2290 -105 128
-306 323 -413 399 -187 134 -373 215 -555 242 -99 15 -123 15 -237 3z m294
-139 c100 -25 121 -33 221 -82 678 -333 1320 -1450 1671 -2912 20 -81 35 -149
33 -151 -3 -3 -298 -28 -483 -40 -122 -9 -644 -35 -692 -35 l-43 0 0 173 c0
674 -88 1331 -242 1807 -97 303 -245 604 -393 800 -119 159 -310 332 -438 397
-27 13 -46 27 -43 30 14 14 131 31 224 32 74 1 127 -5 185 -19z m-773 -58 c0
-5 -27 -31 -61 -58 -66 -53 -177 -173 -253 -272 -340 -447 -621 -1203 -810
-2177 -40 -207 -62 -330 -77 -430 -5 -38 -12 -71 -14 -73 -6 -6 -907 109 -961
122 -61 16 -75 10 -73 -30 3 -35 -17 -98 -45 -142 -19 -30 -50 -46 -263 -137
-134 -56 -243 -99 -243 -95 0 4 13 39 29 76 16 38 52 125 81 194 648 1541
1406 2586 2114 2915 97 45 248 93 331 105 71 11 245 12 245 2z m365 -119 c346
-210 618 -645 786 -1253 120 -435 176 -872 186 -1456 l6 -342 -239 -7 c-184
-6 -359 -3 -764 14 -509 21 -539 24 -975 77 -247 31 -451 57 -452 58 -4 3 50
318 82 486 241 1255 639 2134 1113 2458 l73 50 62 -24 c34 -13 89 -41 122 -61z
m5005 -2914 c0 -7 -19 -8 -57 -3 -78 9 -79 14 -5 14 38 0 62 -4 62 -11z m-242
-441 c-48 -69 -173 -213 -264 -306 -71 -72 -47 -41 93 120 103 120 189 218
191 218 2 0 -7 -15 -20 -32z"/>
</g>
</svg>
