<?xml version="1.0" standalone="no"?>
<!DOCTYPE svg PUBLIC "-//W3C//DTD SVG 20010904//EN"
 "http://www.w3.org/TR/2001/REC-SVG-20010904/DTD/svg10.dtd">
<svg version="1.0" xmlns="http://www.w3.org/2000/svg"
 width="1280.000000pt" height="1238.000000pt" viewBox="0 0 1280.000000 1238.000000"
 preserveAspectRatio="xMidYMid meet">
<metadata>
Created by potrace 1.15, written by Peter Selinger 2001-2017
</metadata>
<g transform="translate(0.000000,1238.000000) scale(0.100000,-0.100000)"
fill="#000000" stroke="none">
<path d="M4246 12361 c-3 -4 -44 -16 -91 -26 -47 -10 -85 -21 -85 -25 0 -3
-30 -12 -67 -19 -38 -8 -73 -17 -79 -22 -5 -5 -46 -16 -90 -25 -43 -10 -81
-21 -84 -25 -7 -9 -104 -29 -143 -29 -18 0 -45 -9 -62 -20 -16 -11 -37 -20
-45 -20 -8 0 -26 -6 -40 -13 -14 -7 -47 -19 -74 -27 -64 -18 -425 -199 -466
-234 -18 -15 -48 -33 -66 -41 -19 -8 -56 -32 -82 -55 -27 -22 -53 -40 -59 -40
-6 0 -69 -53 -140 -119 -121 -111 -231 -234 -246 -273 -3 -10 -10 -18 -15 -18
-7 0 -33 -36 -112 -154 -48 -71 -60 -92 -60 -103 0 -6 -4 -13 -10 -15 -10 -3
-18 -16 -123 -221 -38 -73 -82 -154 -98 -182 -16 -27 -35 -61 -41 -75 -7 -14
-18 -29 -25 -33 -7 -4 -13 -14 -13 -21 0 -7 -13 -30 -30 -52 -16 -21 -30 -43
-30 -48 0 -5 -15 -30 -34 -56 -19 -26 -42 -62 -51 -80 -9 -18 -52 -69 -96
-115 -43 -45 -79 -86 -79 -91 0 -5 -22 -54 -49 -109 -140 -287 -180 -373 -187
-400 -4 -16 -10 -34 -14 -40 -4 -5 -15 -35 -24 -65 -10 -30 -24 -67 -32 -82
-8 -14 -14 -32 -14 -40 0 -7 -6 -24 -13 -38 -7 -14 -21 -52 -31 -85 -10 -33
-23 -65 -28 -72 -5 -6 -16 -40 -24 -74 -8 -35 -18 -68 -23 -73 -5 -6 -12 -27
-16 -46 -4 -19 -13 -48 -20 -65 -8 -16 -21 -57 -31 -90 -9 -33 -20 -64 -23
-70 -4 -5 -13 -30 -20 -55 -7 -25 -17 -49 -21 -55 -4 -5 -15 -35 -24 -66 -9
-31 -23 -69 -31 -85 -8 -16 -15 -36 -15 -44 0 -9 -6 -24 -13 -35 -8 -11 -22
-49 -31 -85 -10 -36 -21 -69 -25 -75 -4 -5 -13 -30 -20 -55 -12 -42 -77 -180
-156 -330 -19 -36 -57 -112 -86 -170 -28 -58 -66 -132 -84 -165 -19 -33 -34
-67 -34 -75 -1 -9 -10 -33 -21 -55 -11 -22 -20 -44 -20 -50 0 -5 -13 -35 -29
-66 -15 -31 -32 -74 -36 -95 -4 -22 -11 -44 -17 -51 -12 -14 -38 -181 -38
-245 0 -26 -5 -50 -10 -53 -12 -7 -13 -132 -2 -139 5 -3 17 -40 27 -83 10 -42
24 -89 32 -103 7 -14 13 -31 13 -38 0 -8 20 -38 45 -66 25 -29 45 -58 45 -65
0 -6 6 -11 13 -11 7 0 33 -21 57 -46 25 -26 61 -54 80 -63 19 -9 54 -29 78
-44 43 -28 43 -29 37 -70 -4 -23 -11 -46 -14 -52 -4 -5 -13 -37 -20 -70 -7
-33 -17 -64 -21 -70 -4 -5 -15 -44 -25 -85 -9 -41 -20 -79 -24 -85 -4 -5 -13
-35 -20 -65 -8 -30 -17 -59 -21 -65 -5 -5 -16 -39 -25 -75 -9 -36 -20 -69 -24
-75 -4 -5 -16 -39 -26 -75 -9 -36 -20 -69 -24 -75 -4 -5 -14 -30 -21 -55 -7
-25 -17 -49 -21 -55 -4 -5 -15 -39 -24 -75 -9 -36 -20 -69 -25 -75 -4 -5 -13
-35 -21 -65 -7 -30 -16 -60 -20 -65 -4 -6 -15 -44 -24 -85 -9 -41 -22 -88 -30
-105 -7 -16 -16 -50 -20 -75 -4 -25 -11 -50 -16 -56 -5 -6 -15 -44 -24 -85 -8
-41 -19 -83 -24 -94 -5 -11 -17 -60 -26 -110 -9 -49 -21 -95 -26 -101 -5 -6
-14 -58 -20 -115 -6 -57 -15 -114 -21 -126 -25 -51 -25 -656 0 -672 5 -3 13
-37 17 -76 4 -38 16 -89 26 -112 10 -23 19 -48 19 -55 1 -23 64 -123 125 -199
96 -119 166 -175 300 -244 28 -14 57 -30 65 -35 17 -11 62 -28 70 -26 3 0 16
-7 30 -17 13 -9 31 -17 38 -17 8 0 28 -7 45 -14 26 -12 108 -37 162 -49 6 -2
15 -5 20 -9 6 -3 30 -11 55 -18 41 -10 63 -19 165 -65 17 -7 53 -19 80 -26 28
-6 55 -16 60 -20 6 -4 44 -15 85 -25 41 -9 77 -20 80 -24 3 -4 32 -13 65 -20
33 -7 65 -16 71 -21 7 -6 16 -9 20 -8 5 1 16 0 24 -4 8 -3 33 -11 55 -17 22
-6 49 -15 60 -20 37 -17 110 -41 125 -42 8 0 20 -4 25 -8 6 -5 28 -11 50 -15
22 -4 54 -13 70 -20 17 -7 64 -21 105 -30 41 -10 80 -21 85 -25 6 -5 30 -13
55 -20 25 -6 63 -19 85 -29 22 -10 58 -22 80 -26 22 -4 45 -10 50 -14 6 -4 37
-14 70 -21 33 -7 65 -17 72 -22 6 -5 17 -8 25 -7 7 1 20 0 28 -3 8 -4 38 -12
65 -19 28 -6 55 -16 60 -20 6 -4 33 -13 60 -20 28 -7 59 -18 70 -24 11 -7 49
-18 85 -25 36 -6 70 -15 75 -20 6 -4 48 -16 95 -25 47 -9 90 -21 95 -25 6 -4
37 -13 70 -19 33 -7 69 -16 80 -21 11 -5 54 -18 95 -29 115 -29 193 -51 210
-58 8 -4 20 -7 25 -8 6 0 15 -3 20 -7 6 -3 36 -11 67 -18 32 -6 60 -15 63 -20
3 -4 38 -14 78 -20 39 -7 77 -16 82 -20 6 -4 48 -15 95 -25 47 -9 90 -21 95
-24 6 -4 46 -16 90 -26 44 -10 85 -22 90 -26 6 -4 37 -12 70 -18 33 -7 69 -16
80 -21 11 -5 54 -16 95 -25 41 -9 80 -21 86 -26 7 -6 43 -15 81 -21 37 -5 73
-14 78 -18 6 -5 51 -16 100 -26 50 -9 95 -20 100 -24 6 -4 44 -13 85 -20 41
-7 80 -17 85 -21 6 -4 51 -15 100 -25 50 -9 95 -20 100 -24 6 -4 55 -15 110
-25 55 -9 109 -21 120 -26 11 -4 54 -13 95 -20 41 -6 81 -15 90 -20 22 -11
151 -39 182 -39 15 0 29 -4 32 -8 3 -5 45 -14 93 -22 48 -7 94 -17 100 -22 7
-6 22 -8 33 -5 11 3 22 2 25 -3 2 -4 47 -13 100 -20 52 -8 95 -17 95 -21 0 -3
37 -12 83 -19 45 -6 91 -15 102 -20 11 -4 45 -16 75 -25 30 -9 57 -20 60 -24
3 -4 25 -15 50 -25 25 -10 59 -24 75 -31 17 -7 41 -16 55 -20 14 -4 30 -11 35
-15 6 -5 39 -16 75 -25 36 -9 79 -22 95 -29 17 -8 63 -17 103 -21 39 -4 75
-11 78 -16 7 -13 311 -12 319 1 3 5 34 10 69 10 65 0 173 17 191 30 6 5 48 15
95 24 47 10 94 21 105 26 11 5 47 14 80 21 33 6 65 14 70 19 6 4 39 15 75 24
36 10 84 26 107 37 24 10 49 19 56 19 7 0 21 6 32 14 11 8 40 20 65 27 25 7
50 16 55 20 6 4 39 15 75 24 36 10 70 21 75 26 6 4 30 12 55 19 41 10 63 19
165 65 17 7 53 19 80 25 28 7 54 17 60 21 24 22 54 6 126 -68 71 -73 129 -144
129 -157 0 -4 20 -34 45 -68 25 -34 45 -66 45 -71 0 -4 21 -34 46 -65 26 -31
49 -64 52 -72 9 -24 126 -169 186 -231 47 -49 177 -149 193 -149 3 0 35 -22
72 -49 44 -32 83 -51 112 -56 24 -4 53 -14 64 -21 11 -7 45 -18 75 -25 30 -6
61 -16 68 -22 18 -15 324 -16 343 -1 16 12 105 30 193 39 33 3 64 9 70 14 6 5
38 14 71 20 33 7 69 16 80 21 11 5 43 14 72 20 28 6 60 18 70 25 10 8 24 15
32 15 8 0 56 21 108 47 99 49 153 97 153 137 0 13 9 31 20 41 11 10 20 24 20
31 0 8 9 19 20 26 11 7 20 17 20 21 0 5 10 23 23 40 12 17 31 48 42 69 44 83
235 466 254 510 12 27 30 69 42 95 11 27 26 62 34 78 7 17 19 48 26 70 7 22
16 45 20 50 3 6 14 35 23 65 10 30 21 64 26 75 5 11 16 56 25 100 9 44 21 91
28 104 16 32 17 372 1 392 -6 8 -19 57 -29 109 -10 52 -21 97 -25 100 -4 3
-15 48 -25 100 -9 52 -21 104 -25 115 -5 11 -14 52 -21 90 -6 39 -15 75 -19
80 -4 6 -15 46 -25 90 -10 44 -21 85 -25 90 -3 6 -12 35 -19 65 -8 30 -17 60
-21 65 -5 6 -16 39 -25 75 -9 36 -21 70 -25 75 -5 6 -14 33 -21 60 -6 28 -15
55 -19 60 -4 6 -16 39 -26 75 -9 36 -23 74 -31 85 -7 11 -13 25 -13 32 0 7
-11 37 -25 67 -14 30 -25 60 -25 65 0 6 -11 32 -24 58 -14 27 -57 116 -97 198
-40 83 -78 157 -85 165 -11 13 -11 20 -1 40 7 14 19 46 26 73 8 26 16 47 20
47 3 0 14 21 25 48 10 26 24 61 32 79 8 17 14 37 14 45 0 7 7 23 15 35 9 12
22 42 31 65 8 24 35 84 59 133 24 50 56 117 71 150 15 33 42 78 60 101 19 23
34 44 34 48 0 4 19 31 43 59 24 29 59 84 77 122 19 39 53 97 75 130 23 33 46
71 53 85 6 14 27 46 44 72 32 45 82 122 103 156 6 10 22 36 37 60 16 24 28 45
28 48 0 3 11 20 24 37 29 38 176 329 176 349 0 8 5 19 12 26 16 16 17 240 1
273 -6 13 -19 63 -28 112 -10 48 -21 90 -25 92 -4 3 -13 35 -20 72 -7 38 -16
73 -20 78 -4 6 -13 35 -20 65 -7 30 -21 71 -30 90 -10 19 -27 58 -39 85 -13
28 -31 68 -41 90 -10 22 -23 54 -30 72 -6 17 -35 78 -64 135 -47 92 -72 138
-168 306 -15 26 -34 62 -43 80 -9 18 -31 56 -50 83 -19 27 -35 52 -35 55 0 4
-16 28 -35 54 -19 26 -35 53 -35 59 0 6 -5 11 -10 11 -6 0 -13 8 -17 18 -3 9
-26 43 -50 75 -24 31 -43 60 -43 63 0 3 -28 41 -63 83 -34 42 -75 95 -91 119
-16 24 -60 78 -98 122 -37 43 -68 84 -68 91 0 17 -594 607 -623 619 -20 8
-192 150 -243 199 -12 12 -25 21 -29 21 -4 0 -33 24 -64 53 -31 28 -78 63
-105 76 -45 24 -50 24 -109 12 -34 -7 -84 -23 -112 -36 -93 -43 -120 -53 -150
-61 -16 -4 -34 -9 -40 -13 -5 -3 -12 -6 -15 -7 -8 -1 -58 -22 -116 -49 -30
-14 -57 -25 -61 -25 -7 0 -164 -75 -203 -97 -14 -7 -41 -21 -60 -30 -19 -8
-43 -19 -52 -24 -10 -5 -25 -9 -33 -9 -8 0 -46 -16 -84 -35 -37 -19 -72 -35
-77 -35 -12 0 -107 -48 -114 -58 -3 -4 -30 -18 -60 -32 -30 -13 -69 -35 -86
-47 -17 -13 -40 -23 -51 -23 -11 0 -27 -7 -34 -16 -12 -14 -28 -16 -111 -10
-120 8 -249 26 -263 37 -6 4 -83 15 -170 24 -88 9 -169 20 -180 25 -11 5 -81
14 -155 20 -74 6 -144 15 -155 20 -11 5 -101 16 -200 25 -99 9 -189 20 -200
25 -11 5 -74 13 -139 20 -66 6 -125 15 -130 19 -11 9 -235 41 -287 41 -16 0
-37 4 -47 9 -9 6 -71 15 -136 21 -66 6 -125 14 -130 19 -13 10 -132 28 -241
37 -44 4 -84 10 -90 14 -5 4 -62 15 -125 24 -63 9 -124 21 -135 26 -11 5 -54
14 -94 20 -41 6 -80 14 -85 19 -6 4 -50 16 -98 26 -49 9 -88 23 -88 29 0 24
-47 102 -82 137 -21 21 -38 41 -38 44 0 4 -26 35 -58 70 -32 34 -68 82 -81
106 -39 76 -60 112 -68 118 -12 9 -83 158 -83 174 0 7 -4 17 -9 23 -5 5 -14
27 -21 49 -7 22 -19 49 -26 60 -6 11 -15 36 -19 55 -4 19 -16 51 -26 70 -11
19 -22 50 -25 70 -4 19 -10 40 -15 45 -4 6 -15 44 -25 85 -9 41 -20 80 -24 85
-4 6 -15 46 -25 90 -9 44 -21 89 -26 100 -4 11 -13 57 -20 103 -6 45 -15 82
-19 82 -4 0 -15 38 -25 85 -10 47 -21 88 -25 90 -5 3 -11 24 -15 48 -4 23 -13
56 -20 72 -8 17 -21 64 -30 105 -9 41 -20 79 -24 85 -4 5 -14 37 -21 70 -7 33
-16 65 -20 70 -4 6 -10 24 -14 40 -10 41 -163 352 -195 395 -15 19 -33 47 -40
62 -30 60 -274 298 -304 298 -3 0 -32 18 -65 40 -45 30 -69 40 -100 40 -23 0
-43 -4 -46 -9z m-695 -828 c0 -37 28 -158 41 -178 3 -5 11 -44 19 -85 7 -41
18 -84 26 -95 7 -11 13 -26 13 -34 0 -8 8 -33 19 -55 20 -46 91 -261 91 -278
0 -7 21 -55 46 -107 26 -53 52 -107 59 -121 7 -14 18 -46 25 -72 7 -27 16 -48
20 -48 5 0 11 -18 15 -40 4 -22 11 -42 16 -45 4 -3 27 -45 51 -93 23 -48 47
-94 54 -102 7 -8 29 -49 50 -90 20 -41 54 -104 76 -139 21 -34 38 -67 38 -71
0 -4 21 -36 46 -69 48 -64 52 -83 12 -58 -12 8 -47 20 -76 27 -29 7 -70 21
-92 31 -21 10 -46 19 -54 19 -8 0 -17 4 -21 9 -3 5 -22 15 -43 21 -37 11 -75
27 -162 69 -25 11 -48 21 -52 21 -4 0 -37 14 -73 30 -36 17 -68 30 -71 30 -7
0 -115 48 -134 60 -26 15 -159 80 -167 80 -5 1 -26 9 -48 20 -22 11 -46 19
-54 20 -7 0 -28 9 -45 19 -17 10 -47 22 -66 26 -19 4 -39 10 -45 13 -5 4 -14
7 -20 7 -12 1 -57 20 -99 41 -17 8 -47 17 -68 20 -37 6 -37 7 -24 33 8 14 20
42 26 61 7 19 21 54 31 77 11 24 19 49 19 56 0 7 6 21 14 32 7 11 16 34 20 50
17 70 228 489 290 575 20 28 36 54 36 59 0 5 29 45 65 90 36 44 65 83 65 86 0
11 112 135 121 135 5 0 9 -17 10 -37z m6429 -3176 c25 -7 57 -19 70 -27 14 -9
57 -31 95 -50 60 -29 94 -58 243 -207 94 -96 172 -181 172 -188 0 -8 11 -22
25 -31 14 -9 25 -21 25 -26 0 -5 27 -43 60 -83 33 -40 60 -76 60 -80 0 -3 23
-36 50 -72 28 -36 50 -70 50 -74 0 -5 30 -52 66 -106 37 -54 69 -105 73 -113
3 -8 24 -42 46 -75 21 -33 49 -78 60 -100 35 -66 48 -87 88 -146 20 -31 37
-60 37 -66 0 -5 11 -25 25 -44 14 -19 38 -59 52 -89 14 -30 30 -62 34 -70 5
-8 27 -53 50 -100 22 -47 48 -98 56 -113 8 -16 17 -55 20 -88 6 -58 -11 -198
-27 -228 -5 -9 -17 -41 -26 -71 -9 -30 -20 -59 -24 -65 -4 -5 -15 -37 -25 -70
-10 -33 -21 -64 -25 -70 -4 -5 -13 -32 -20 -60 -7 -27 -17 -55 -22 -61 -4 -6
-15 -36 -24 -65 -8 -30 -29 -81 -46 -114 -16 -33 -37 -82 -45 -110 -8 -27 -32
-86 -54 -130 -21 -43 -39 -85 -39 -93 0 -22 -21 -2 -36 35 -8 19 -32 53 -53
76 -20 23 -48 58 -61 76 -22 32 -32 49 -77 134 -8 15 -19 27 -24 27 -5 0 -9 4
-9 10 0 5 -20 36 -45 69 -25 32 -45 63 -45 68 0 9 -48 87 -106 172 -20 29 -48
74 -62 100 -14 25 -30 55 -36 66 -6 12 -28 44 -48 72 -21 28 -38 53 -38 56 0
2 -18 32 -40 65 -22 33 -40 64 -40 70 0 5 -18 32 -41 58 -22 27 -49 65 -59 84
-10 19 -52 73 -94 120 -42 47 -84 100 -93 118 -14 30 -104 134 -221 257 l-48
50 11 160 c6 88 14 167 17 175 4 8 12 119 19 245 6 127 16 235 20 241 5 6 12
120 16 253 l6 241 31 0 c17 -1 51 -6 76 -13z m62 -3329 c17 -27 35 -48 40 -48
5 0 12 -8 15 -17 4 -10 42 -59 85 -109 43 -49 85 -102 93 -117 8 -15 29 -47
48 -70 19 -23 46 -60 60 -83 14 -22 44 -63 68 -90 23 -27 49 -64 57 -84 8 -19
25 -48 38 -63 36 -42 30 -106 -15 -177 -5 -8 -26 -49 -46 -90 -19 -41 -40 -82
-45 -90 -5 -8 -25 -50 -45 -92 -19 -42 -39 -80 -44 -83 -5 -3 -13 -20 -16 -38
-4 -17 -13 -43 -20 -57 -7 -14 -21 -45 -30 -70 -35 -87 -58 -131 -65 -123 -4
4 -15 62 -25 128 -10 66 -21 125 -25 130 -4 6 -12 39 -19 75 -6 36 -16 74 -21
85 -4 11 -16 61 -25 110 -8 50 -20 99 -24 110 -5 11 -17 61 -26 110 -10 50
-21 95 -25 100 -4 6 -13 42 -20 80 -7 39 -16 75 -21 81 -5 6 -16 62 -24 125
-9 63 -20 123 -24 134 -5 11 -15 63 -21 115 -7 52 -16 102 -20 110 -4 8 -10
56 -14 105 l-6 90 65 -70 c36 -38 80 -91 97 -117z m1468 -1661 c0 -6 8 -25 18
-42 10 -16 27 -61 37 -100 10 -38 22 -72 26 -75 3 -3 12 -32 19 -65 7 -33 16
-69 21 -80 23 -56 31 -185 27 -442 -5 -233 -8 -276 -25 -328 -11 -33 -24 -80
-28 -105 -4 -25 -11 -49 -15 -55 -4 -5 -15 -39 -25 -74 -24 -91 -89 -209 -138
-255 -53 -49 -158 -137 -273 -230 -36 -30 -85 -60 -159 -97 -22 -11 -58 -31
-80 -44 -85 -52 -229 -116 -233 -105 -5 13 28 173 38 185 4 6 16 48 25 95 9
47 21 90 25 95 4 6 13 43 21 83 7 40 16 75 21 78 4 3 8 13 8 23 0 20 64 226
78 251 5 8 17 47 27 85 10 39 22 72 26 75 3 3 10 21 14 40 4 19 13 49 20 65 7
17 19 48 26 70 6 22 20 56 30 75 11 19 19 38 19 42 0 4 11 31 24 60 13 29 27
64 31 78 4 14 11 30 15 35 4 6 13 28 20 50 7 22 30 73 51 113 22 41 39 78 39
83 0 10 79 181 146 312 24 49 44 93 44 99 0 6 10 26 21 45 l21 34 19 -31 c11
-17 19 -36 19 -43z"/>
</g>
</svg>
